<svg version="1.1" id="Layer_1" xmlns="http://www.w3.org/2000/svg" xmlns:xlink="http://www.w3.org/1999/xlink" x="0px" y="0px"
	 width="100%" viewBox="0 0 496 496" enable-background="new 0 0 496 496" xml:space="preserve">
<path fill="#000000" opacity="1.000000" stroke="none" 
	d="
M443.613556,371.560486 
	C407.566101,426.627563 357.742065,461.494232 293.776245,475.203003 
	C197.341110,495.870453 98.448174,453.335999 46.434811,369.498047 
	C27.911346,339.640930 16.064512,307.307892 12.674543,272.273590 
	C4.578365,188.602036 32.666801,119.069420 96.439850,64.549164 
	C130.552170,35.386173 170.690155,17.987520 215.276108,13.077548 
	C297.316406,4.042967 366.929199,29.737072 422.336823,91.449211 
	C453.453918,126.106972 471.744690,167.173538 477.986603,213.145279 
	C485.675110,269.771423 474.237030,322.665527 443.613556,371.560486 
M357.791229,81.741966 
	C317.018646,54.599518 272.227051,43.032852 223.537628,48.443008 
	C186.184036,52.593575 152.028854,65.770180 122.824875,89.762238 
	C61.319538,140.290939 37.616570,205.607956 50.857079,283.586029 
	C58.026859,325.811432 78.530846,361.867676 110.359825,390.893066 
	C158.067230,434.398224 214.305466,450.867615 277.830841,441.262329 
	C317.003082,435.339325 351.644043,418.690826 380.402161,391.190277 
	C433.360443,340.547852 453.210480,278.389648 440.106476,206.765060 
	C430.511475,154.320312 402.091095,112.892662 357.791229,81.741966 
z"/>
<path fill="#000000" opacity="1.000000" stroke="none" 
	d="
M305.231995,323.179657 
	C285.423523,351.703979 265.802979,379.923920 245.597260,408.985474 
	C207.405212,354.023254 169.951904,300.124207 132.490234,246.213074 
	C135.007874,244.127365 137.080521,244.718292 138.978760,244.713989 
	C161.302353,244.663315 183.626144,244.692673 205.949829,244.664597 
	C212.755905,244.656036 212.920319,244.518356 212.925079,237.615875 
	C212.958206,189.636597 212.955200,141.657272 212.968018,93.677971 
	C212.968597,91.512489 213.035812,89.346901 213.026443,87.181564 
	C213.012848,84.037369 214.539719,82.783836 217.679047,82.795433 
	C236.337402,82.864365 254.996628,82.907707 273.654388,82.784050 
	C278.580505,82.751396 278.271301,85.866631 278.270325,89.147659 
	C278.257111,133.295319 278.263641,177.442963 278.266052,221.590622 
	C278.266357,227.588013 278.449982,233.592590 278.210114,239.580261 
	C278.052765,243.508530 279.479797,244.771072 283.400696,244.746048 
	C306.056671,244.601517 328.714081,244.662643 351.370941,244.701385 
	C353.481171,244.704987 355.688416,244.222015 358.864105,246.047485 
	C340.989502,271.742828 323.204712,297.309021 305.231995,323.179657 
z"/>
</svg>