<svg version="1.1" id="Layer_1" xmlns="http://www.w3.org/2000/svg" xmlns:xlink="http://www.w3.org/1999/xlink" x="0px" y="0px"
	 width="100%" viewBox="0 0 496 496" enable-background="new 0 0 496 496" xml:space="preserve">
<path fill="#000000" opacity="1.000000" stroke="none" 
	d="
M320.325226,23.515072 
	C370.321686,39.145390 410.770966,67.794174 441.856750,109.319305 
	C464.781372,139.942612 479.364838,174.352570 485.372864,212.220337 
	C494.160919,267.610321 485.407776,320.082886 457.322998,368.705811 
	C422.310120,429.323212 370.385559,468.493225 301.945038,482.952911 
	C220.641785,500.130127 148.351776,479.868439 87.356529,423.124969 
	C48.555420,387.028534 25.165241,342.030090 16.659462,289.652802 
	C7.277096,231.877609 17.378008,177.399200 47.912846,127.539429 
	C83.016968,70.218590 134.066727,34.095978 199.615662,18.848162 
	C226.964233,12.486408 254.628052,12.289256 282.447571,15.409677 
	C295.247314,16.845381 307.588989,20.048687 320.325226,23.515072 
M139.565094,57.109524 
	C115.331062,70.801689 94.620232,88.698112 77.239563,110.336731 
	C50.331329,143.836975 34.208252,181.915466 29.023598,224.706650 
	C25.408081,254.547073 27.619162,283.850433 36.047436,312.582489 
	C50.926121,363.304108 79.885384,404.277496 123.388855,434.381256 
	C175.389877,470.365143 232.988724,482.683197 294.877167,470.148987 
	C359.068390,457.148407 408.691864,421.832184 442.666779,365.820068 
	C471.395172,318.457550 480.805389,266.805542 471.208801,212.250977 
	C461.863800,159.126724 436.412384,114.681274 394.985443,80.017784 
	C346.478088,39.429821 290.210327,22.627056 227.396469,28.563658 
	C196.391724,31.493948 167.250107,41.123169 139.565094,57.109524 
z"/>
<path fill="#000000" opacity="1.000000" stroke="none" 
	d="
M268.739685,148.198669 
	C317.807373,182.321732 366.579041,216.239059 416.536438,250.980972 
	C361.107819,289.516296 306.604584,327.408295 252.064682,365.325745 
	C250.090027,362.920715 250.687515,360.852875 250.683472,358.960297 
	C250.634857,336.136719 250.488281,313.310974 250.772202,290.490845 
	C250.837189,285.265991 249.112427,284.109222 244.211166,284.122864 
	C193.899567,284.262726 143.587372,284.185211 93.275337,284.163940 
	C86.002586,284.160889 86.236572,284.016815 86.352509,276.884399 
	C86.631340,259.730560 86.546860,242.570587 86.582375,225.413025 
	C86.597961,217.884857 86.568535,217.876984 93.865074,217.874573 
	C143.510727,217.858170 193.156372,217.851120 242.802017,217.825348 
	C250.644485,217.821289 250.648056,217.784622 250.648941,209.809021 
	C250.651413,187.651733 250.650604,165.494446 250.651108,143.337158 
	C250.651154,141.385010 250.651123,139.432877 250.651123,136.385269 
	C257.701538,139.877060 262.784424,144.405609 268.739685,148.198669 
z"/>
</svg>