<svg version="1.1" id="Layer_1" xmlns="http://www.w3.org/2000/svg" xmlns:xlink="http://www.w3.org/1999/xlink" x="0px" y="0px"
	 width="100%" viewBox="0 0 496 496" enable-background="new 0 0 496 496" xml:space="preserve">
<path fill="#000000" opacity="1.000000" stroke="none" 
	d="
M487.278198,277.955231 
	C483.084717,311.326874 473.253143,342.419403 456.177795,370.928223 
	C421.527832,428.779327 371.373627,465.857208 305.926788,482.424469 
	C281.068268,488.717163 255.795364,489.923035 230.569290,487.943054 
	C192.488647,484.954071 157.058304,472.888062 124.701645,452.325134 
	C78.511673,422.971008 46.181984,382.437836 27.269987,331.151276 
	C15.566912,299.414246 11.317302,266.459717 13.998318,232.958298 
	C18.630053,175.081100 41.323738,124.877716 82.239204,83.547096 
	C116.535507,48.902809 157.879303,26.800348 205.921371,17.563248 
	C231.304596,12.682789 256.882965,11.713017 282.366241,15.646284 
	C374.449524,29.859076 437.796204,80.911263 473.121185,166.717773 
	C486.515320,199.252808 489.991364,233.606277 488.178650,268.563629 
	C488.023773,271.550476 487.599030,274.523346 487.278198,277.955231 
M322.911621,62.701420 
	C288.005676,49.574081 252.064743,45.971569 215.448578,52.633961 
	C168.234924,61.224598 128.404312,83.528534 97.486450,120.440002 
	C56.780289,169.037308 41.906815,225.270508 52.845901,287.400696 
	C61.703762,337.710236 86.977402,379.145844 127.760262,410.407166 
	C175.168823,446.747314 228.875122,459.142609 287.348572,449.211853 
	C320.319000,443.612366 350.320465,429.981567 376.460510,408.684784 
	C425.966370,368.351471 450.961182,315.887909 452.512878,252.364517 
	C453.105835,228.090698 448.808594,204.350494 440.164276,181.501709 
	C418.733459,124.855499 379.694244,85.566154 322.911621,62.701420 
z"/>
<path fill="#000000" opacity="1.000000" stroke="none" 
	d="
M413.871552,249.212708 
	C416.443085,252.118561 413.764496,252.934494 412.319458,253.941238 
	C382.935272,274.413055 353.516235,294.834808 324.106934,315.270569 
	C301.674530,330.858215 279.253632,346.462433 256.799194,362.018219 
	C255.219925,363.112274 253.837646,364.748322 251.525208,364.663483 
	C250.091858,362.918396 250.687149,360.849182 250.683044,358.954315 
	C250.634338,336.458191 250.651611,313.961914 250.648300,291.465698 
	C250.647247,284.238892 250.642853,284.225159 243.181976,284.221985 
	C193.190369,284.200775 143.198746,284.189117 93.207130,284.165222 
	C86.309013,284.161926 85.861153,283.546570 86.189484,276.790131 
	C87.022896,259.639801 86.616928,242.476990 86.395325,225.321518 
	C86.301170,218.031937 86.212158,217.866959 93.217125,217.864792 
	C143.042099,217.849365 192.867081,217.837250 242.692062,217.810745 
	C250.642548,217.806519 250.647263,217.775589 250.648392,209.898483 
	C250.651596,187.735535 250.640701,165.572556 250.668030,143.409637 
	C250.670456,141.440475 250.317566,139.412857 251.741348,136.365555 
	C305.822083,173.991669 359.708221,211.482376 413.871552,249.212708 
z"/>
</svg>